<?xml version="1.0" encoding="UTF-8" standalone="no"?>
<svg
   id="Layer_3"
   data-name="Layer 3"
   viewBox="0 0 48 48"
   version="1.1"
   width="48"
   height="48"
   xmlns="http://www.w3.org/2000/svg"
   xmlns:svg="http://www.w3.org/2000/svg"
   xmlns:rdf="http://www.w3.org/1999/02/22-rdf-syntax-ns#"
   xmlns:cc="http://creativecommons.org/ns#"
   xmlns:dc="http://purl.org/dc/elements/1.1/">
  <defs
     id="defs61">
    <style
       id="style59">.cls-1{fill:#654073;}</style>
  </defs>
  <title
     id="title63">mojave-mark-rgb-purple</title>
  <path
     d="m 17.647737,41.213187 c 2.384353,0.496285 4.72435,0.669213 6.955704,0.514285 2.388854,-0.1665 4.597709,-0.707142 6.565492,-1.610998 3.23421,-1.483069 5.785706,-3.925922 7.579918,-7.259775 1.898997,-3.52478 2.95071,-8.035702 3.134567,-13.428623 -2.825353,0.413356 -6.460705,1.780712 -9.590772,3.659137 -4.02428,2.411354 -6.451707,7.466133 -6.451707,7.466133 -0.196662,0.917927 -0.916019,1.577855 -1.610998,1.598783 -0.91686,-0.02795 -1.667569,-1.687498 -1.667569,-1.687498 0.01286,-1.249712 -0.766927,-2.704496 -2.255139,-4.207494 -1.779426,-1.799997 -4.544994,-3.599994 -7.585706,-4.939064 -2.168354,-0.955927 -4.3540649,-1.62064 -6.1527769,-1.889997 0.05657,2.873567 0.374785,6.492848 2.16964,9.486629 1.176427,1.961354 2.8285669,3.433495 5.0444919,4.499994 2.686499,1.295355 6.202923,1.951711 10.450917,1.951711 0.887598,0 1.60714,0.719541 1.60714,1.60714 0,0.887599 -0.719542,1.607141 -1.60714,1.607141"
     style="fill:#ffffff;fill-opacity:1;stroke:none;stroke-width:0;stroke-dasharray:none;stroke-opacity:1;paint-order:markers stroke fill"
     id="path3070" />
  <path
     class="cls-1 UnoptimicedTransforms"
     d="m 305.83,649.75 c -31.41332,-0.0934 -62.7341,-3.41083 -93.47,-9.9 C 135,623.74 60.8,588.79 8.69,544 -1.7773598,534.99262 -2.960158,519.20496 6.0482103,508.73846 15.056579,498.27196 30.844349,497.09063 41.31,506.1 c 45.88,39.49 111.94,70.41 181.24,84.85 37.09,7.72 73.49,10.41 108.2,8 37.16,-2.59 71.52,-11 102.13,-25.06 50.31,-23.07 90,-61.07 117.91,-112.93 29.54,-54.83 45.9,-125 48.76,-208.89 -43.95,6.43 -100.5,27.7 -149.19,56.92 -62.6,37.51 -100.07,80.7 -100.36,115.6 v 0.54 C 346.94084,439.4089 335.75086,449.67446 324.94,450 310.67772,449.56523 299.26532,438.01644 299,423.75 v 0 c 0.2,-19.44 -11.93,-42.07 -35.08,-65.45 -27.68,-28 -70.7,-56 -118,-76.83 -33.73,-14.87 -67.73,-25.21 -95.71,-29.4 0.88,44.7 5.83,101 33.75,147.57 18.3,30.51 44,53.41 78.47,70 41.79,20.15 96.49,30.36 162.57,30.36 13.80713,0 24.99999,11.19288 24.99999,25 0,13.80712 -11.19286,25 -24.99999,25 C 186.21,550 90.68,508.07 41.06,425.36 0,356.92 0,277.53 0,225 c 0,-13.80712 11.192881,-25 25,-25 38.15,0 89.56,13 141.06,35.72 l 3.06,1.35 c -1.01149,-4.24618 -1.68031,-8.56673 -2,-12.92 -1.92,-25.77 7.75,-54 30.45,-88.92 C 220,100.78 255.86,59 307.29,7.35 c 9.77046,-9.8062936 25.64954,-9.8062936 35.42,0 51.61,51.79 87.62,93.72 110.07,128.19 22.78,35 32.47,63.24 30.5,89 -0.30548,4.03929 -0.91048,8.05031 -1.81,12 C 532.79,213.68 585.18,200 625,200 c 13.80712,0 25,11.19288 25,25 0,251.47 -106.73,353.22 -196.27,394.29 -36.11,16.56 -76.32,26.48 -119.51,29.49 -9.36667,0.64667 -18.83,0.97 -28.39,0.97 z M 325,60.68 c -73.91,76.46 -110.23,130.15 -108,159.75 1.25,16.76 16,28.48 42,47.77 21.41,15.87 47.2,35 65.85,64.1 18.89,-29.13 44.84,-48.22 66.35,-64.05 26.09,-19.21 40.92,-30.88 42.19,-47.52 2.29,-29.5 -34.17,-83.3 -108.39,-160.05 z"
     id="path65"
     style="stroke:#ffffff;stroke-width:50;stroke-dasharray:none;stroke-opacity:1;paint-order:markers stroke fill"
     transform="matrix(0.06428562,0,0,0.06428562,3.1072061,3.1102454)" />
  <metadata
     id="metadata1001">
    <rdf:RDF>
      <cc:Work
         rdf:about="">
        <dc:title>mojave-mark-rgb-purple</dc:title>
      </cc:Work>
    </rdf:RDF>
  </metadata>
  <path
     style="fill:#ffffff;fill-opacity:1;stroke:none;stroke-width:1.58527;stroke-linecap:round;stroke-linejoin:round;stroke-miterlimit:10;stroke-dasharray:none;stroke-opacity:1;paint-order:markers stroke fill"
     d="M 23.796602,24.154179 C 23.474701,23.684175 22.993217,23.109242 22.528576,22.64005 21.80038,21.904721 21.28533,21.472096 19.942809,20.468088 18.483785,19.376955 17.97266,18.943936 17.612727,18.494075 c -0.401036,-0.501232 -0.538845,-0.863147 -0.533744,-1.401719 0.0037,-0.389431 0.0562,-0.669129 0.214375,-1.14183 0.646554,-1.932196 2.854201,-4.895986 6.387955,-8.5758956 l 0.319685,-0.332907 0.273217,0.285349 c 3.978955,4.1556486 6.171628,7.1987736 6.60759,9.1704186 0.07271,0.328822 0.08237,0.867313 0.01978,1.102316 -0.107603,0.404022 -0.352208,0.789281 -0.763274,1.202179 -0.386359,0.38808 -0.74776,0.679676 -2.094759,1.690153 -1.411272,1.058693 -1.819595,1.398228 -2.50647,2.08422 -0.588628,0.587872 -0.919847,0.972023 -1.300648,1.508512 -0.135584,0.191015 -0.247566,0.346729 -0.248849,0.346031 -0.0013,-7.01e-4 -0.08723,-0.125223 -0.190986,-0.276723 z"
     id="path2538" />
</svg>
